<?xml version="1.0" encoding="utf-8"?>
<svg width="3561.6501px" height="775px" viewBox="0 0 3561.6501 775" version="1.1" xmlns:xlink="http://www.w3.org/1999/xlink" xmlns="http://www.w3.org/2000/svg">
  <defs>
    <radialGradient gradientUnits="objectBoundingBox" cx="50.000008%" cy="49.999996%" fx="50.000008%" fy="49.999996%" r="74.519325%" gradientTransform="translate(0.50000006,0.49999997),scale(0.90489334,1),rotate(-137.85838),translate(-0.50000006,-0.49999997)" id="gradient_1">
      <stop offset="0%" stop-color="#D093FF" />
      <stop offset="100%" stop-color="#F392FF" />
    </radialGradient>
    <radialGradient gradientUnits="objectBoundingBox" cx="50.000008%" cy="49.999996%" fx="50.000008%" fy="49.999996%" r="215.81862%" gradientTransform="translate(0.50000006,0.49999997),scale(0.23815556,1),rotate(-166.60437),translate(-0.50000006,-0.49999997)" id="gradient_2">
      <stop offset="0%" stop-color="#D093FF" />
      <stop offset="100%" stop-color="#F392FF" />
    </radialGradient>
    <path d="M0 0L856 0L856 775L0 775L0 0Z" id="path_1" />
    <clipPath id="mask_1">
      <use xlink:href="#path_1" />
    </clipPath>
  </defs>
  <g id="横向">
    <g id="Logo-3">
      <path d="M0 0L856 0L856 775L0 775L0 0Z" id="Mask" fill="none" fill-rule="evenodd" stroke="none" />
      <g clip-path="url(#mask_1)">
        <path d="M106 375C106 167.893 273.893 0 481 0C688.107 0 856 167.893 856 375C856 582.107 688.107 750 481 750C273.893 750 106 582.107 106 375ZM213.143 375C213.143 227.067 333.067 107.143 481 107.143C628.933 107.143 748.857 227.067 748.857 375C748.857 522.933 628.933 642.857 481 642.857C333.067 642.857 213.143 522.933 213.143 375ZM281 375C281 264.543 370.543 175 481 175C591.457 175 681 264.543 681 375C681 485.457 591.457 575 481 575C370.543 575 281 485.457 281 375ZM381.921 375.921C381.921 320.692 426.692 275.921 481.921 275.921C537.149 275.921 581.921 320.692 581.921 375.921C581.921 431.149 537.149 475.921 481.921 475.921C426.692 475.921 381.921 431.149 381.921 375.921ZM419 375.5C419 340.982 446.982 313 481.5 313C516.018 313 544 340.982 544 375.5C544 410.018 516.018 438 481.5 438C446.982 438 419 410.018 419 375.5ZM399.844 774.998C180.216 774.998 32.6299 579.882 -0.452342 531.724C5.08447 537.687 19.6711 549.999 45.7321 549.999C70.8553 549.999 92.5032 536.476 102.346 517L102.872 517C168.295 653.482 299.919 752.194 456.145 771.536C437.699 773.821 418.909 774.998 399.844 774.998Z" id="Logo-2" fill="url(#gradient_1)" fill-rule="evenodd" stroke="none" />
      </g>
    </g>
    <path d="M2450.95 437.75L2575.2 607.15L2575.2 437.75L2622.45 437.75L2622.45 693.95L2581.15 693.95L2456.55 524.2L2456.55 693.95L2410 693.95L2410 437.75L2450.95 437.75ZM2073.7 565.5C2073.7 538.667 2079.07 515.217 2089.8 495.15C2100.53 475.083 2115.18 459.742 2133.73 449.125C2152.27 438.508 2172.98 433.2 2195.85 433.2C2218.72 433.2 2239.43 438.508 2257.98 449.125C2276.52 459.742 2291.23 475.083 2302.07 495.15C2312.92 515.217 2318.35 538.667 2318.35 565.5C2318.35 592.567 2312.92 616.133 2302.07 636.2C2291.23 656.267 2276.52 671.608 2257.98 682.225C2239.43 692.842 2218.72 698.15 2195.85 698.15C2172.98 698.15 2152.27 692.842 2133.73 682.225C2115.18 671.608 2100.53 656.267 2089.8 636.2C2079.07 616.133 2073.7 592.567 2073.7 565.5L2073.7 565.5ZM2127.25 565.5C2127.25 582.533 2130.11 597.583 2135.82 610.65C2141.54 623.717 2149.59 633.808 2159.98 640.925C2170.36 648.042 2182.32 651.6 2195.85 651.6C2209.38 651.6 2221.34 648.042 2231.73 640.925C2242.11 633.808 2250.16 623.717 2255.88 610.65C2261.59 597.583 2264.45 582.533 2264.45 565.5C2264.45 548.467 2261.59 533.475 2255.88 520.525C2250.16 507.575 2242.11 497.542 2231.73 490.425C2221.34 483.308 2209.38 479.75 2195.85 479.75C2182.32 479.75 2170.36 483.308 2159.98 490.425C2149.59 497.542 2141.54 507.575 2135.82 520.525C2130.11 533.475 2127.25 548.467 2127.25 565.5L2127.25 565.5ZM2001.65 619.75C2001.65 637.25 1997.16 651.892 1988.18 663.675C1979.19 675.458 1967.53 684.15 1953.18 689.75C1938.83 695.35 1923.48 698.15 1907.15 698.15C1883.35 698.15 1861.88 692.608 1842.75 681.525C1823.62 670.442 1810.9 654.75 1804.6 634.45L1845.9 611C1851.5 624.067 1859.67 634.217 1870.4 641.45C1881.13 648.683 1893.97 652.3 1908.9 652.3C1921.03 652.3 1930.66 649.85 1937.78 644.95C1944.89 640.05 1948.45 632.933 1948.45 623.6C1948.45 616.133 1946.06 609.95 1941.28 605.05C1936.49 600.15 1930.54 596.3 1923.43 593.5C1916.31 590.7 1906.57 587.433 1894.2 583.7C1877.63 578.8 1864.1 573.958 1853.6 569.175C1843.1 564.392 1834.12 557.217 1826.65 547.65C1819.18 538.083 1815.45 525.483 1815.45 509.85C1815.45 493.283 1819.83 479.225 1828.58 467.675C1837.33 456.125 1848.88 447.492 1863.23 441.775C1877.58 436.058 1893.03 433.2 1909.6 433.2C1932.23 433.2 1951.6 438.333 1967.7 448.6C1983.8 458.867 1994.18 472.75 1998.85 490.25L1957.55 513.7C1953.35 502.733 1947.05 494.158 1938.65 487.975C1930.25 481.792 1919.75 478.7 1907.15 478.7C1895.72 478.7 1886.44 481.325 1879.33 486.575C1872.21 491.825 1868.65 498.767 1868.65 507.4C1868.65 513.933 1870.87 519.358 1875.3 523.675C1879.73 527.992 1885.39 531.492 1892.28 534.175C1899.16 536.858 1908.43 539.95 1920.1 543.45C1936.9 548.35 1950.78 553.308 1961.75 558.325C1972.72 563.342 1982.11 570.808 1989.93 580.725C1997.74 590.642 2001.65 603.65 2001.65 619.75L2001.65 619.75ZM1720.65 585.8L1616.7 585.8L1616.7 649.5L1736.75 649.5L1736.75 693.95L1565.95 693.95L1565.95 437.75L1732.9 437.75L1732.9 481.85L1616.7 481.85L1616.7 542.05L1720.65 542.05L1720.65 585.8ZM1312.95 437.75L1363.7 437.75L1363.7 648.45L1480.25 648.45L1480.25 693.95L1312.95 693.95L1312.95 437.75ZM1087.95 433.2C1112.92 433.2 1135.55 438.975 1155.85 450.525C1176.15 462.075 1192.07 477.942 1203.62 498.125C1215.17 518.308 1220.95 540.883 1220.95 565.85C1220.95 590.583 1215.17 613.042 1203.62 633.225C1192.07 653.408 1176.15 669.275 1155.85 680.825C1135.55 692.375 1112.92 698.15 1087.95 698.15C1063.22 698.15 1040.82 692.375 1020.75 680.825C1000.68 669.275 984.875 653.408 973.325 633.225C961.775 613.042 956 590.583 956 565.85C956 540.883 961.775 518.308 973.325 498.125C984.875 477.942 1000.68 462.075 1020.75 450.525C1040.82 438.975 1063.22 433.2 1087.95 433.2L1087.95 433.2ZM1087.95 663.85C1106.15 663.85 1122.78 659.533 1137.83 650.9C1152.88 642.267 1164.72 630.483 1173.35 615.55C1181.98 600.617 1186.3 584.05 1186.3 565.85C1186.3 547.417 1181.98 530.733 1173.35 515.8C1164.72 500.867 1152.88 489.142 1137.83 480.625C1122.78 472.108 1106.15 467.85 1087.95 467.85C1069.75 467.85 1053.24 472.108 1038.43 480.625C1023.61 489.142 1011.94 500.867 1003.43 515.8C994.908 530.733 990.65 547.417 990.65 565.85C990.65 584.05 994.908 600.675 1003.43 615.725C1011.94 630.775 1023.61 642.558 1038.43 651.075C1053.24 659.592 1069.75 663.85 1087.95 663.85L1087.95 663.85ZM1092.85 528.4C1083.98 528.4 1076.69 531.842 1070.97 538.725C1065.26 545.608 1062.4 554.65 1062.4 565.85C1062.4 577.05 1065.26 586.092 1070.97 592.975C1076.69 599.858 1083.98 603.3 1092.85 603.3C1103.12 603.3 1110.93 598.517 1116.3 588.95L1145.35 606.45C1141.38 616.483 1134.56 624.242 1124.88 629.725C1115.19 635.208 1104.4 637.95 1092.5 637.95C1080.6 637.95 1069.34 635.15 1058.72 629.55C1048.11 623.95 1039.53 615.667 1033 604.7C1026.47 593.733 1023.2 580.783 1023.2 565.85C1023.2 550.917 1026.47 537.967 1033 527C1039.53 516.033 1048.11 507.75 1058.72 502.15C1069.34 496.55 1080.6 493.75 1092.5 493.75C1104.4 493.75 1115.19 496.492 1124.88 501.975C1134.56 507.458 1141.38 515.217 1145.35 525.25L1116.3 542.75C1110.93 533.183 1103.12 528.4 1092.85 528.4L1092.85 528.4ZM3496.55 158.1C3516.62 158.1 3532.48 164.692 3544.15 177.875C3555.82 191.058 3561.65 210.25 3561.65 235.45L3561.65 343.95L3513 343.95L3513 251.2C3513 218.067 3502.03 201.5 3480.1 201.5C3468.43 201.5 3459.04 205.992 3451.93 214.975C3444.81 223.958 3441.25 236.617 3441.25 252.95L3441.25 343.95L3392.6 343.95L3392.6 162.65L3435.3 162.65C3436.47 176.883 3437.52 186.567 3438.45 191.7C3450.12 169.3 3469.48 158.1 3496.55 158.1L3496.55 158.1ZM3221.85 158.1C3246.35 158.1 3265.48 165.042 3279.25 178.925C3293.02 192.808 3299.9 212.583 3299.9 238.25L3299.9 343.95L3258.95 343.95C3258.72 342.083 3258.43 338.992 3258.08 334.675C3257.73 330.358 3257.2 326.567 3256.5 323.3C3251.13 331.7 3244.19 337.942 3235.68 342.025C3227.16 346.108 3216.83 348.15 3204.7 348.15C3192.1 348.15 3180.61 345.933 3170.23 341.5C3159.84 337.067 3151.62 330.592 3145.55 322.075C3139.48 313.558 3136.45 303.467 3136.45 291.8C3136.45 279.667 3139.89 269.108 3146.78 260.125C3153.66 251.142 3162.93 244.2 3174.6 239.3C3186.27 234.4 3199.1 231.95 3213.1 231.95C3225.7 231.95 3238.65 234.05 3251.95 238.25C3251.25 211.417 3239.82 198 3217.65 198C3199.92 198 3186.97 205.933 3178.8 221.8L3144.15 201.85C3150.68 188.317 3160.72 177.642 3174.25 169.825C3187.78 162.008 3203.65 158.1 3221.85 158.1L3221.85 158.1ZM3251.95 270.45C3240.28 267.65 3230.13 266.25 3221.5 266.25C3210.07 266.25 3201.2 268.292 3194.9 272.375C3188.6 276.458 3185.45 282.233 3185.45 289.7C3185.45 296.467 3187.96 301.717 3192.98 305.45C3197.99 309.183 3204.47 311.05 3212.4 311.05C3222.9 311.05 3232.12 308.075 3240.05 302.125C3247.98 296.175 3251.95 287.95 3251.95 277.45L3251.95 270.45ZM3050.05 343.95L3001.4 343.95L3001.4 77.6L3050.05 77.6L3050.05 343.95ZM2820.85 87.75C2841.15 87.75 2858.88 91.25 2874.05 98.25C2889.22 105.25 2900.94 115.108 2909.23 127.825C2917.51 140.542 2921.65 155.417 2921.65 172.45C2921.65 189.25 2917.51 204.008 2909.23 216.725C2900.94 229.442 2889.22 239.242 2874.05 246.125C2858.88 253.008 2841.15 256.45 2820.85 256.45L2783.4 256.45L2783.4 343.95L2732.65 343.95L2732.65 87.75L2820.85 87.75ZM2815.25 213.4C2831.12 213.4 2843.83 209.958 2853.4 203.075C2862.97 196.192 2867.75 185.983 2867.75 172.45C2867.75 158.917 2862.97 148.592 2853.4 141.475C2843.83 134.358 2831.12 130.8 2815.25 130.8L2783.4 130.8L2783.4 213.4L2815.25 213.4ZM2530.05 235.8L2426.1 235.8L2426.1 299.5L2546.15 299.5L2546.15 343.95L2375.35 343.95L2375.35 87.75L2542.3 87.75L2542.3 131.85L2426.1 131.85L2426.1 192.05L2530.05 192.05L2530.05 235.8ZM2185.7 245.6L2185.7 201.85L2283.7 201.85L2283.7 306.15C2275.77 318.983 2263.11 329.192 2245.73 336.775C2228.34 344.358 2209.15 348.15 2188.15 348.15C2163.18 348.15 2141.02 342.55 2121.65 331.35C2102.28 320.15 2087.23 304.517 2076.5 284.45C2065.77 264.383 2060.4 241.4 2060.4 215.5C2060.4 189.367 2065.94 166.267 2077.03 146.2C2088.11 126.133 2103.33 110.617 2122.7 99.65C2142.07 88.6833 2163.53 83.2 2187.1 83.2C2210.67 83.2 2231.14 88.5083 2248.53 99.125C2265.91 109.742 2277.63 123.333 2283.7 139.9L2241.7 164.05C2236.57 153.317 2229.22 144.858 2219.65 138.675C2210.08 132.492 2198.77 129.4 2185.7 129.4C2171.93 129.4 2159.57 132.9 2148.6 139.9C2137.63 146.9 2129 156.933 2122.7 170C2116.4 183.067 2113.25 198.233 2113.25 215.5C2113.25 233.233 2116.46 248.633 2122.88 261.7C2129.29 274.767 2138.39 284.8 2150.18 291.8C2161.96 298.8 2175.67 302.3 2191.3 302.3C2209.5 302.3 2223.73 297.283 2234 287.25L2234 245.6L2185.7 245.6ZM1889.65 87.75L1993.25 343.95L1939.35 343.95L1916.95 285.5L1817.2 285.5L1795.5 343.95L1744.75 343.95L1845.2 87.75L1889.65 87.75ZM1900.5 242.1L1866.2 152.15L1832.95 242.1L1900.5 242.1ZM1692.65 343.95L1632.1 343.6L1569.8 251.55L1567.7 251.55L1530.6 251.55L1530.6 343.95L1479.85 343.95L1479.85 87.75L1568.4 87.75C1588.47 87.75 1606.08 91.1333 1621.25 97.9C1636.42 104.667 1648.08 114.292 1656.25 126.775C1664.42 139.258 1668.5 153.55 1668.5 169.65C1668.5 185.983 1664.3 200.333 1655.9 212.7C1647.5 225.067 1635.72 234.517 1620.55 241.05L1692.65 343.95ZM1530.6 130.8L1530.6 208.5L1562.45 208.5C1577.38 208.5 1589.81 205.292 1599.73 198.875C1609.64 192.458 1614.6 182.717 1614.6 169.65C1614.6 156.35 1609.7 146.55 1599.9 140.25C1590.1 133.95 1577.62 130.8 1562.45 130.8L1530.6 130.8ZM1376.3 343.95L1325.55 343.95L1325.55 87.75L1376.3 87.75L1376.3 343.95ZM1183.15 87.75L1221.65 87.75L1221.65 343.95L1173.35 343.95L1173.35 178.75L1108.25 275.7L1081.65 275.7L1016.2 178.05L1016.2 343.95L968.25 343.95L968.25 87.75L1008.5 87.75L1096 220.4L1183.15 87.75Z" id="MIRAGE-Plan-©LESON" fill="url(#gradient_2)" fill-rule="evenodd" stroke="none" />
  </g>
</svg>